<svg width="28" height="28" viewBox="0 0 28 28" fill="none" xmlns="http://www.w3.org/2000/svg">
<path fill-rule="evenodd" clip-rule="evenodd" d="M2.1875 14.4312C2.1875 14.2075 2.27639 13.9929 2.43463 13.8346C2.59286 13.6764 2.80747 13.5875 3.03125 13.5875H22.9319L17.6214 8.27862C17.4629 8.12018 17.3739 7.9053 17.3739 7.68124C17.3739 7.45718 17.4629 7.2423 17.6214 7.08387C17.7798 6.92543 17.9947 6.83643 18.2187 6.83643C18.4428 6.83643 18.6577 6.92543 18.8161 7.08387L25.5661 13.8339C25.6447 13.9122 25.707 14.0054 25.7496 14.1079C25.7921 14.2104 25.814 14.3203 25.814 14.4312C25.814 14.5422 25.7921 14.6521 25.7496 14.7546C25.707 14.8571 25.6447 14.9502 25.5661 15.0286L18.8161 21.7786C18.6577 21.937 18.4428 22.0261 18.2187 22.0261C17.9947 22.0261 17.7798 21.937 17.6214 21.7786C17.4629 21.6202 17.3739 21.4053 17.3739 21.1812C17.3739 20.9572 17.4629 20.7423 17.6214 20.5839L22.9319 15.275H3.03125C2.80747 15.275 2.59286 15.1861 2.43463 15.0279C2.27639 14.8696 2.1875 14.655 2.1875 14.4312Z" fill="url(#paint0_linear)"/>
<defs>
<linearGradient id="paint0_linear" x1="25.814" y1="22.0261" x2="24.8852" y2="5.55485" gradientUnits="userSpaceOnUse">
<stop stop-color="#0E0035"/>
<stop offset="0.635417" stop-color="#29058D"/>
<stop offset="1" stop-color="#140049"/>
</linearGradient>
</defs>
</svg>
