<svg width="79" height="63" viewBox="0 0 79 63" fill="none" xmlns="http://www.w3.org/2000/svg">
<path d="M66.3911 6.29988C66.3267 6.23625 66.2624 6.17261 66.1981 6.17261C66.0051 6.04534 65.8121 5.91807 65.6191 5.79079C65.3617 5.59988 65.0401 5.40898 64.7828 5.21807L64.7184 5.15443C52.3666 -2.86375 35.5759 -1.52739 24.7038 9.22716C15.7616 18.0726 13.2526 30.7999 17.0482 41.809C17.0482 41.8726 17.1126 41.9999 17.1126 42.0635C17.1769 42.3181 17.3056 42.5726 17.4342 42.8272C17.5629 43.0817 17.6272 43.3999 17.7559 43.6544C17.7559 43.7181 17.8202 43.7181 17.8202 43.7817C19.4285 47.5362 21.8088 50.9726 24.7038 53.7726L35.1256 43.4635C28.435 36.8453 28.435 26.2181 35.1256 19.5999C41.8161 12.9817 52.5596 12.9817 59.2502 19.5999C66.3911 26.6635 73.2103 29.0817 78.8715 29.3999C78.3569 19.9817 73.5319 11.709 66.3911 6.29988Z" fill="white"/>
<path d="M78.9357 29.4636C73.2744 29.1454 66.4552 26.7272 59.25 19.6636C65.8762 26.2818 65.8119 36.9727 59.1213 43.5272C52.4308 50.0818 41.623 50.0181 34.9967 43.3999C16.4691 24.8181 0 37.7999 0 37.7999C7.14088 37.2272 13.7671 42.9545 24.5106 53.6454C36.9267 65.9909 57.127 66.1181 69.6075 53.8363C76.3624 47.1545 79.5147 38.1818 78.9357 29.4636Z" fill="white"/>
<path d="M78.9354 29.4636C76.4908 29.3363 73.7889 28.7636 70.9582 27.6182C71.2799 36.4 69.4786 43.5909 64.332 48.6818C51.8516 60.9636 31.6512 60.9 19.2351 48.4909C16.6618 45.9454 14.6032 44.1636 12.8662 42.9545C14.1529 43.9727 15.4395 45.0545 16.8548 46.3273C17.3051 46.7091 17.7555 47.1545 18.2701 47.6C18.2701 47.6 18.2701 47.6 18.3345 47.6C19.2351 48.4909 20.2001 49.3818 21.2294 50.3363C21.2937 50.4 21.3581 50.4636 21.4224 50.5273C21.8727 50.9727 22.3874 51.4182 22.8377 51.9273C22.902 51.9909 22.9664 52.0545 23.095 52.1818C23.6097 52.6909 24.06 53.1363 24.5747 53.6454C36.9908 65.9909 57.1911 66.1182 69.6716 53.8363C76.3621 47.1545 79.5144 38.1818 78.9354 29.4636Z" fill="url(#paint0_linear)"/>
<defs>
<linearGradient id="paint0_linear" x1="32.0644" y1="60.0518" x2="63.7746" y2="19.4609" gradientUnits="userSpaceOnUse">
<stop stop-color="white" stop-opacity="0.6"/>
<stop offset="0.9775" stop-color="white"/>
</linearGradient>
</defs>
</svg>
